<?xml version="1.0" encoding="UTF-8"?>
<svg width="200" height="200" viewBox="0 0 200 200" xmlns="http://www.w3.org/2000/svg">
  <defs>
    <linearGradient id="skinTone" x1="0%" y1="0%" x2="100%" y2="100%">
      <stop offset="0%" style="stop-color:#8d5524;stop-opacity:1"/>
      <stop offset="100%" style="stop-color:#73461d;stop-opacity:1"/>
    </linearGradient>
    <linearGradient id="hair" x1="0%" y1="0%" x2="100%" y2="100%">
      <stop offset="0%" style="stop-color:#1a1a1a;stop-opacity:1"/>
      <stop offset="100%" style="stop-color:#000000;stop-opacity:1"/>
    </linearGradient>
    <linearGradient id="uniform" x1="0%" y1="0%" x2="100%" y2="100%">
      <stop offset="0%" style="stop-color:#7c3aed;stop-opacity:0.2"/>
      <stop offset="100%" style="stop-color:#7c3aed;stop-opacity:0.1"/>
    </linearGradient>
  </defs>
  
  <!-- Background -->
  <rect width="200" height="200" fill="#ffffff"/>
  
  <!-- Uniform -->
  <path d="M60 120 L100 110 L140 120 L150 200 L50 200 Z" fill="url(#uniform)"/>
  
  <!-- Neck -->
  <path d="M85 100 C85 120 115 120 115 100" fill="url(#skinTone)"/>
  
  <!-- Face -->
  <circle cx="100" cy="70" r="40" fill="url(#skinTone)"/>
  
  <!-- Hair -->
  <path d="M60 70 C60 40 140 40 140 70 C140 85 115 95 100 95 C85 95 60 85 60 70" fill="url(#hair)"/>
  <path d="M140 70 C140 55 125 45 100 45 C75 45 60 55 60 70" fill="url(#hair)"/>
  
  <!-- Facial Hair -->
  <path d="M85 90 C95 95 105 95 115 90" stroke="#1a1a1a" stroke-width="3" fill="none"/>
  
  <!-- Eyes -->
  <ellipse cx="85" cy="65" rx="5" ry="3" fill="#2d1810"/>
  <ellipse cx="115" cy="65" rx="5" ry="3" fill="#2d1810"/>
  
  <!-- Eyebrows -->
  <path d="M80 58 C85 56 90 56 95 58" stroke="#1a1a1a" stroke-width="2" fill="none"/>
  <path d="M105 58 C110 56 115 56 120 58" stroke="#1a1a1a" stroke-width="2" fill="none"/>
  
  <!-- Nose -->
  <path d="M97 65 L100 75 L103 65" stroke="#6b4423" stroke-width="1" fill="none"/>
  
  <!-- Mouth -->
  <path d="M90 85 C95 88 105 88 110 85" stroke="#5c3a1e" stroke-width="2" fill="none"/>
  
  <!-- Name Tag -->
  <rect x="70" y="130" width="60" height="20" rx="10" fill="#7c3aed" opacity="0.1"/>
  <text x="100" y="144" text-anchor="middle" font-family="Arial" font-size="12" fill="#7c3aed">Raj K.</text>
</svg> 